<svg xmlns="http://www.w3.org/2000/svg" width="18" height="18" fill="none" viewBox="0 0 18 18"><g filter="url(#filter0_d_917_357)"><path fill="#110F25" d="M12.3511 8.87617C12.3511 8.59378 12.2099 8.3114 12.0687 8.17021L7.4094 3.51092C6.98583 3.08734 6.27987 3.08734 5.8563 3.51092C5.43273 3.93449 5.43273 4.64044 5.8563 5.06401L9.66845 8.87617L5.8563 12.6883C5.43273 13.1119 5.43273 13.8178 5.8563 14.2414C6.27987 14.665 6.98582 14.665 7.4094 14.2414L11.9275 9.72331C12.2099 9.44093 12.3511 9.15855 12.3511 8.87617Z"/><path stroke="#4E9FFF" stroke-width=".706" d="M12.7041 8.87617C12.7041 8.49405 12.5212 8.12355 12.3183 7.92062L7.65899 3.26132C7.09757 2.69991 6.16812 2.69991 5.60671 3.26132C5.04529 3.82274 5.04529 4.75219 5.60671 5.31361L9.16926 8.87617L5.60671 12.4387C5.04529 13.0001 5.04529 13.9296 5.60671 14.491C6.16812 15.0524 7.09757 15.0524 7.65899 14.491L12.1771 9.9729C12.4979 9.65205 12.7041 9.28518 12.7041 8.87617Z"/></g><defs><filter id="filter0_d_917_357" width="19.52" height="24.073" x="-.815" y="-3.16" color-interpolation-filters="sRGB" filterUnits="userSpaceOnUse"><feFlood flood-opacity="0" result="BackgroundImageFix"/><feColorMatrix in="SourceAlpha" result="hardAlpha" type="matrix" values="0 0 0 0 0 0 0 0 0 0 0 0 0 0 0 0 0 0 127 0"/><feOffset/><feGaussianBlur stdDeviation="2.824"/><feComposite in2="hardAlpha" operator="out"/><feColorMatrix type="matrix" values="0 0 0 0 0.145098 0 0 0 0 0.0862745 0 0 0 0 0.831373 0 0 0 1 0"/><feBlend in2="BackgroundImageFix" mode="normal" result="effect1_dropShadow_917_357"/><feBlend in="SourceGraphic" in2="effect1_dropShadow_917_357" mode="normal" result="shape"/></filter></defs></svg>