<svg width="18" height="18" viewBox="0 0 18 18" fill="none" xmlns="http://www.w3.org/2000/svg">
<g filter="url(#filter0_d_917_361)">
<path d="M5.64893 8.80547C5.64893 9.08786 5.79012 9.37024 5.93131 9.51143L10.5906 14.1707C11.0142 14.5943 11.7201 14.5943 12.1437 14.1707C12.5673 13.7472 12.5673 13.0412 12.1437 12.6176L8.33155 8.80547L12.1437 4.99332C12.5673 4.56975 12.5673 3.8638 12.1437 3.44023C11.7201 3.01665 11.0142 3.01665 10.5906 3.44023L6.0725 7.95833C5.79012 8.24071 5.64893 8.52309 5.64893 8.80547Z" fill="#110F25"/>
<path d="M5.29595 8.80547C5.29595 9.18759 5.47878 9.55809 5.68171 9.76102L10.341 14.4203C10.9024 14.9817 11.8319 14.9817 12.3933 14.4203C12.9547 13.8589 12.9547 12.9295 12.3933 12.368L8.83074 8.80547L12.3933 5.24292C12.9547 4.6815 12.9547 3.75205 12.3933 3.19063C11.8319 2.62921 10.9024 2.62921 10.341 3.19063L5.82291 7.70874C5.50205 8.02959 5.29595 8.39646 5.29595 8.80547Z" stroke="#4E9FFF" stroke-width="0.705954"/>
</g>
<defs>
<filter id="filter0_d_917_361" x="-0.70476" y="-3.231" width="19.5196" height="24.073" filterUnits="userSpaceOnUse" color-interpolation-filters="sRGB">
<feFlood flood-opacity="0" result="BackgroundImageFix"/>
<feColorMatrix in="SourceAlpha" type="matrix" values="0 0 0 0 0 0 0 0 0 0 0 0 0 0 0 0 0 0 127 0" result="hardAlpha"/>
<feOffset/>
<feGaussianBlur stdDeviation="2.82382"/>
<feComposite in2="hardAlpha" operator="out"/>
<feColorMatrix type="matrix" values="0 0 0 0 0.145098 0 0 0 0 0.0862745 0 0 0 0 0.831373 0 0 0 1 0"/>
<feBlend mode="normal" in2="BackgroundImageFix" result="effect1_dropShadow_917_361"/>
<feBlend mode="normal" in="SourceGraphic" in2="effect1_dropShadow_917_361" result="shape"/>
</filter>
</defs>
</svg>
